<svg width="1521" height="307" viewBox="0 0 1521 307" fill="none" xmlns="http://www.w3.org/2000/svg">
<path d="M243.428 234.596C239.78 234.596 236.892 233.608 234.764 231.632C232.788 229.504 231.8 226.616 231.8 222.968V139.52H219.032C216.144 139.52 213.864 138.76 212.192 137.24C210.52 135.568 209.684 133.364 209.684 130.628C209.684 127.74 210.52 125.536 212.192 124.016C213.864 122.496 216.144 121.736 219.032 121.736H238.412L231.8 127.892V119.684C231.8 104.636 235.524 93.3121 242.972 85.7121C250.42 77.9601 261.288 73.4001 275.576 72.0321L282.644 71.5761C285.228 71.2721 287.28 71.6521 288.8 72.7161C290.32 73.7801 291.308 75.1481 291.764 76.8201C292.22 78.4921 292.22 80.2401 291.764 82.0641C291.46 83.7361 290.7 85.2561 289.484 86.6241C288.268 87.9921 286.748 88.7521 284.924 88.9041L280.592 89.1321C271.624 89.8921 265.088 92.4761 260.984 96.8841C256.88 101.14 254.828 107.676 254.828 116.492V125.384L251.636 121.736H276.944C280.136 121.736 282.492 122.496 284.012 124.016C285.684 125.536 286.52 127.74 286.52 130.628C286.52 133.364 285.684 135.568 284.012 137.24C282.492 138.76 280.136 139.52 276.944 139.52H254.828V222.968C254.828 230.72 251.028 234.596 243.428 234.596ZM340.1 235.052C328.244 235.052 319.276 231.632 313.196 224.792C307.268 217.8 304.304 207.768 304.304 194.696V82.2921C304.304 78.4921 305.292 75.6041 307.268 73.6281C309.244 71.6521 312.056 70.6641 315.704 70.6641C319.352 70.6641 322.164 71.6521 324.14 73.6281C326.268 75.6041 327.332 78.4921 327.332 82.2921V193.328C327.332 200.928 328.852 206.628 331.892 210.428C335.084 214.076 339.644 215.9 345.572 215.9C346.94 215.9 348.156 215.9 349.22 215.9C350.284 215.748 351.348 215.596 352.412 215.444C354.236 215.292 355.528 215.824 356.288 217.04C357.048 218.104 357.428 220.384 357.428 223.88C357.428 227.072 356.744 229.58 355.376 231.404C354.008 233.076 351.804 234.14 348.764 234.596C347.396 234.748 345.952 234.824 344.432 234.824C342.912 234.976 341.468 235.052 340.1 235.052Z" fill="#ECEDEE"/>
<path d="M420.906 235.052C408.746 235.052 398.258 232.772 389.442 228.212C380.778 223.5 374.014 216.888 369.15 208.376C364.438 199.712 362.082 189.452 362.082 177.596C362.082 166.044 364.438 155.936 369.15 147.272C373.863 138.608 380.322 131.844 388.53 126.98C396.738 122.116 406.086 119.684 416.574 119.684C424.326 119.684 431.242 120.976 437.322 123.56C443.402 125.992 448.57 129.64 452.826 134.504C457.234 139.216 460.502 144.992 462.63 151.832C464.91 158.672 466.051 166.348 466.051 174.86C466.051 177.444 465.29 179.42 463.77 180.788C462.25 182.004 459.97 182.612 456.93 182.612H380.322V168.476H450.546L446.671 171.668C446.671 164.068 445.531 157.608 443.251 152.288C441.122 146.968 437.855 142.94 433.447 140.204C429.191 137.316 423.87 135.872 417.486 135.872C410.342 135.872 404.262 137.544 399.246 140.888C394.382 144.232 390.658 148.868 388.074 154.796C385.49 160.724 384.198 167.64 384.198 175.544V176.912C384.198 190.288 387.314 200.396 393.546 207.236C399.93 213.924 409.126 217.268 421.134 217.268C425.694 217.268 430.482 216.66 435.498 215.444C440.666 214.228 445.531 212.176 450.09 209.288C452.674 207.768 454.954 207.084 456.93 207.236C459.059 207.388 460.73 208.072 461.947 209.288C463.314 210.504 464.15 212.024 464.454 213.848C464.758 215.672 464.454 217.572 463.542 219.548C462.63 221.372 461.035 223.044 458.755 224.564C453.587 228.06 447.582 230.72 440.742 232.544C433.902 234.216 427.29 235.052 420.906 235.052Z" fill="#ECEDEE"/>
<path d="M538.807 235.052C526.647 235.052 516.159 232.772 507.343 228.212C498.679 223.5 491.915 216.888 487.051 208.376C482.339 199.712 479.983 189.452 479.983 177.596C479.983 166.044 482.339 155.936 487.051 147.272C491.763 138.608 498.223 131.844 506.431 126.98C514.639 122.116 523.987 119.684 534.475 119.684C542.227 119.684 549.143 120.976 555.223 123.56C561.303 125.992 566.471 129.64 570.727 134.504C575.135 139.216 578.403 144.992 580.531 151.832C582.811 158.672 583.951 166.348 583.951 174.86C583.951 177.444 583.191 179.42 581.671 180.788C580.151 182.004 577.871 182.612 574.831 182.612H498.223V168.476H568.447L564.571 171.668C564.571 164.068 563.431 157.608 561.151 152.288C559.023 146.968 555.755 142.94 551.347 140.204C547.091 137.316 541.771 135.872 535.387 135.872C528.243 135.872 522.163 137.544 517.147 140.888C512.283 144.232 508.559 148.868 505.975 154.796C503.391 160.724 502.099 167.64 502.099 175.544V176.912C502.099 190.288 505.215 200.396 511.447 207.236C517.831 213.924 527.027 217.268 539.035 217.268C543.595 217.268 548.383 216.66 553.399 215.444C558.567 214.228 563.431 212.176 567.991 209.288C570.575 207.768 572.855 207.084 574.831 207.236C576.959 207.388 578.631 208.072 579.847 209.288C581.215 210.504 582.051 212.024 582.355 213.848C582.659 215.672 582.355 217.572 581.443 219.548C580.531 221.372 578.935 223.044 576.655 224.564C571.487 228.06 565.483 230.72 558.643 232.544C551.803 234.216 545.191 235.052 538.807 235.052Z" fill="#ECEDEE"/>
<path d="M615.896 234.596C612.248 234.596 609.436 233.608 607.46 231.632C605.484 229.504 604.496 226.616 604.496 222.968V82.2921C604.496 78.4921 605.484 75.6041 607.46 73.6281C609.436 71.6521 612.248 70.6641 615.896 70.6641C619.544 70.6641 622.356 71.6521 624.332 73.6281C626.46 75.6041 627.524 78.4921 627.524 82.2921V170.3H627.98L670.616 127.892C673.048 125.46 675.252 123.56 677.228 122.192C679.204 120.824 681.788 120.14 684.98 120.14C688.172 120.14 690.604 120.976 692.276 122.648C693.948 124.32 694.784 126.372 694.784 128.804C694.784 131.084 693.644 133.44 691.364 135.872L646.22 180.56V169.844L695.468 218.864C697.9 221.296 699.04 223.728 698.888 226.16C698.736 228.592 697.748 230.644 695.924 232.316C694.1 233.836 691.82 234.596 689.084 234.596C685.588 234.596 682.776 233.912 680.648 232.544C678.672 231.176 676.316 229.124 673.58 226.388L627.98 182.156H627.524V222.968C627.524 230.72 623.648 234.596 615.896 234.596Z" fill="#ECEDEE"/>
<path d="M765.168 234.368C763.648 234.368 762.432 233.912 761.52 233C760.76 232.088 760.38 230.872 760.38 229.352V126.296C760.38 124.624 760.76 123.408 761.52 122.648C762.432 121.736 763.648 121.28 765.168 121.28C766.688 121.28 767.828 121.736 768.588 122.648C769.348 123.408 769.728 124.624 769.728 126.296V149.552H767.22C770.26 139.976 775.504 132.832 782.952 128.12C790.4 123.256 798.988 120.824 808.716 120.824C817.532 120.824 824.828 122.344 830.604 125.384C836.532 128.424 840.94 133.06 843.828 139.292C846.716 145.524 848.16 153.352 848.16 162.776V229.352C848.16 230.872 847.704 232.088 846.792 233C846.032 233.912 844.892 234.368 843.372 234.368C841.852 234.368 840.636 233.912 839.724 233C838.964 232.088 838.584 230.872 838.584 229.352V163.688C838.584 151.984 836.228 143.396 831.516 137.924C826.804 132.452 819.204 129.716 808.716 129.716C797.012 129.716 787.588 133.364 780.444 140.66C773.452 147.804 769.956 157.456 769.956 169.616V229.352C769.956 232.696 768.36 234.368 765.168 234.368Z" fill="#ECEDEE"/>
<path d="M927.671 234.824C916.727 234.824 907.303 232.544 899.399 227.984C891.495 223.424 885.339 216.964 880.931 208.604C876.675 200.092 874.547 189.984 874.547 178.28C874.547 166.728 876.675 156.696 880.931 148.184C885.339 139.52 891.343 132.832 898.943 128.12C906.695 123.256 915.587 120.824 925.619 120.824C932.763 120.824 939.071 122.04 944.543 124.472C950.167 126.904 954.879 130.4 958.679 134.96C962.631 139.52 965.595 145.068 967.571 151.604C969.699 158.14 970.763 165.512 970.763 173.72C970.763 175.696 970.307 177.216 969.395 178.28C968.635 179.192 967.419 179.648 965.747 179.648H880.703V171.212H965.747L961.871 173.948C961.871 164.676 960.503 156.772 957.767 150.236C955.031 143.548 950.927 138.456 945.455 134.96C940.135 131.312 933.447 129.488 925.391 129.488C916.575 129.488 909.051 131.616 902.819 135.872C896.739 139.976 892.103 145.6 888.911 152.744C885.871 159.888 884.351 168.02 884.351 177.14V178.28C884.351 193.48 888.075 205.26 895.523 213.62C903.123 221.828 913.687 225.932 927.215 225.932C933.295 225.932 938.995 225.172 944.315 223.652C949.635 221.98 954.879 219.092 960.047 214.988C961.111 214.076 962.175 213.62 963.239 213.62C964.455 213.468 965.443 213.696 966.203 214.304C967.115 214.76 967.723 215.444 968.027 216.356C968.483 217.116 968.559 218.028 968.255 219.092C967.951 220.156 967.191 221.144 965.975 222.056C961.263 226.008 955.487 229.124 948.647 231.404C941.807 233.684 934.815 234.824 927.671 234.824Z" fill="#ECEDEE"/>
<path d="M1035.61 234.824C1028.01 234.824 1021.63 233.38 1016.46 230.492C1011.29 227.452 1007.41 223.196 1004.83 217.724C1002.25 212.1 1000.95 205.336 1000.95 197.432V130.856H982.486C980.966 130.856 979.75 130.476 978.838 129.716C977.926 128.956 977.47 127.968 977.47 126.752C977.47 125.536 977.926 124.548 978.838 123.788C979.75 123.028 980.966 122.648 982.486 122.648H1000.95V91.8681C1000.95 90.1961 1001.33 88.9801 1002.09 88.2201C1003.01 87.3081 1004.22 86.8521 1005.74 86.8521C1007.26 86.8521 1008.4 87.3081 1009.16 88.2201C1010.07 88.9801 1010.53 90.1961 1010.53 91.8681V122.648H1043.13C1044.81 122.648 1046.02 123.028 1046.78 123.788C1047.69 124.548 1048.15 125.536 1048.15 126.752C1048.15 127.968 1047.69 128.956 1046.78 129.716C1046.02 130.476 1044.81 130.856 1043.13 130.856H1010.53V195.38C1010.53 205.26 1012.51 212.86 1016.46 218.18C1020.41 223.348 1027.02 225.932 1036.29 225.932C1039.49 225.932 1042.07 225.628 1044.05 225.02C1046.17 224.26 1047.92 223.88 1049.29 223.88C1050.2 223.88 1050.96 224.26 1051.57 225.02C1052.33 225.78 1052.71 226.844 1052.71 228.212C1052.71 228.972 1052.48 229.808 1052.03 230.72C1051.72 231.48 1051.04 232.012 1049.97 232.316C1048.45 232.924 1046.25 233.456 1043.36 233.912C1040.63 234.52 1038.04 234.824 1035.61 234.824Z" fill="#ECEDEE"/>
<path d="M1100.63 234.368C1099.11 234.368 1097.67 233.912 1096.3 233C1095.09 232.088 1094.1 230.644 1093.34 228.668L1058.45 129.26C1057.85 127.436 1057.69 125.992 1058 124.928C1058.3 123.712 1058.83 122.8 1059.59 122.192C1060.51 121.584 1061.49 121.28 1062.56 121.28C1063.93 121.28 1064.99 121.584 1065.75 122.192C1066.51 122.8 1067.12 123.864 1067.57 125.384L1103.37 230.036H1097.44L1134.38 126.98C1135.14 125.004 1136.13 123.56 1137.34 122.648C1138.71 121.736 1140.23 121.28 1141.9 121.28C1143.57 121.28 1145.09 121.736 1146.46 122.648C1147.83 123.56 1148.82 125.004 1149.43 126.98L1185.45 230.036H1179.52L1216.23 125.384C1216.84 123.712 1217.45 122.648 1218.05 122.192C1218.81 121.584 1219.95 121.28 1221.47 121.28C1222.99 121.28 1224.06 121.66 1224.67 122.42C1225.27 123.18 1225.58 124.168 1225.58 125.384C1225.73 126.6 1225.58 127.892 1225.12 129.26L1189.78 228.668C1189.17 230.644 1188.19 232.088 1186.82 233C1185.6 233.912 1184.23 234.368 1182.71 234.368C1181.19 234.368 1179.75 233.912 1178.38 233C1177.17 232.088 1176.18 230.644 1175.42 228.668L1138.48 124.244H1145.55L1107.93 228.668C1107.32 230.644 1106.33 232.088 1104.97 233C1103.75 233.912 1102.31 234.368 1100.63 234.368Z" fill="#ECEDEE"/>
<path d="M1291.97 234.824C1281.94 234.824 1273.2 232.468 1265.75 227.756C1258.45 223.044 1252.75 216.432 1248.65 207.92C1244.7 199.408 1242.72 189.376 1242.72 177.824C1242.72 169.16 1243.86 161.332 1246.14 154.34C1248.42 147.348 1251.69 141.344 1255.95 136.328C1260.35 131.312 1265.6 127.512 1271.68 124.928C1277.76 122.192 1284.52 120.824 1291.97 120.824C1302 120.824 1310.67 123.18 1317.96 127.892C1325.41 132.604 1331.11 139.216 1335.06 147.728C1339.17 156.24 1341.22 166.272 1341.22 177.824C1341.22 186.488 1340.08 194.316 1337.8 201.308C1335.52 208.3 1332.17 214.304 1327.77 219.32C1323.51 224.336 1318.34 228.212 1312.26 230.948C1306.33 233.532 1299.57 234.824 1291.97 234.824ZM1291.97 225.932C1300.03 225.932 1307.02 224.032 1312.95 220.232C1318.87 216.432 1323.43 210.96 1326.63 203.816C1329.82 196.52 1331.41 187.856 1331.41 177.824C1331.41 162.624 1327.84 150.844 1320.7 142.484C1313.71 133.972 1304.13 129.716 1291.97 129.716C1283.91 129.716 1276.92 131.616 1270.99 135.416C1265.07 139.216 1260.51 144.688 1257.31 151.832C1254.12 158.976 1252.53 167.64 1252.53 177.824C1252.53 193.024 1256.1 204.88 1263.24 213.392C1270.39 221.752 1279.96 225.932 1291.97 225.932Z" fill="#ECEDEE"/>
<path d="M1372.93 234.368C1371.41 234.368 1370.19 233.912 1369.28 233C1368.52 232.088 1368.14 230.872 1368.14 229.352V126.296C1368.14 124.624 1368.52 123.408 1369.28 122.648C1370.19 121.736 1371.41 121.28 1372.93 121.28C1374.45 121.28 1375.59 121.736 1376.35 122.648C1377.11 123.408 1377.49 124.624 1377.49 126.296V148.412H1375.21C1378.1 139.444 1383.19 132.528 1390.49 127.664C1397.93 122.8 1406.52 120.368 1416.25 120.368C1417.62 120.368 1418.76 120.672 1419.67 121.28C1420.73 121.736 1421.27 122.724 1421.27 124.244C1421.27 125.764 1420.89 126.98 1420.13 127.892C1419.37 128.652 1418.07 129.108 1416.25 129.26L1413.51 129.488C1402.27 130.552 1393.45 134.352 1387.07 140.888C1380.83 147.424 1377.72 156.088 1377.72 166.88V229.352C1377.72 230.872 1377.34 232.088 1376.58 233C1375.82 233.912 1374.6 234.368 1372.93 234.368Z" fill="#ECEDEE"/>
<path d="M1442.96 234.368C1441.44 234.368 1440.22 233.912 1439.31 233C1438.55 232.088 1438.17 230.872 1438.17 229.352V75.9081C1438.17 74.2361 1438.55 73.0201 1439.31 72.2601C1440.22 71.3481 1441.44 70.8921 1442.96 70.8921C1444.48 70.8921 1445.62 71.3481 1446.38 72.2601C1447.29 73.0201 1447.75 74.2361 1447.75 75.9081V173.72H1448.2L1503.15 124.7C1504.37 123.636 1505.51 122.8 1506.57 122.192C1507.64 121.584 1508.93 121.28 1510.45 121.28C1511.66 121.28 1512.65 121.66 1513.41 122.42C1514.17 123.028 1514.48 123.864 1514.32 124.928C1514.32 125.992 1513.72 127.132 1512.5 128.348L1453.9 180.332V172.124L1517.52 226.388C1519.04 227.604 1519.87 228.82 1520.02 230.036C1520.18 231.252 1519.87 232.24 1519.11 233C1518.5 233.912 1517.59 234.368 1516.38 234.368C1515.01 234.368 1513.79 234.064 1512.73 233.456C1511.82 232.848 1510.52 231.86 1508.85 230.492L1448.2 178.964H1447.75V229.352C1447.75 232.696 1446.15 234.368 1442.96 234.368Z" fill="#ECEDEE"/>
<mask id="mask0_405_254" style="mask-type:alpha" maskUnits="userSpaceOnUse" x="0" y="0" width="190" height="307">
<path fill-rule="evenodd" clip-rule="evenodd" d="M185.723 0.562608C187.422 -1.06048 190.006 1.1527 188.677 3.09299L129.242 89.8622C128.306 91.2276 129.377 93.0695 131.021 92.9251L165.96 89.857C167.7 89.7042 168.749 91.7454 167.616 93.08L107.653 163.772C106.521 165.107 107.57 167.147 109.309 166.995L146.932 163.691C148.773 163.53 149.787 165.786 148.448 167.063L3.32123 305.671C1.62178 307.295 -0.96231 305.081 0.366724 303.141L60.5835 215.23C61.5188 213.865 60.4489 212.022 58.8045 212.167L23.118 215.301C21.3843 215.453 20.3335 213.425 21.4535 212.088L79.6533 142.605C80.7733 141.268 79.7225 139.238 77.9888 139.391L42.112 142.542C40.272 142.703 39.258 140.447 40.5961 139.17L185.723 0.562608Z" fill="black"/>
</mask>
<g mask="url(#mask0_405_254)">
<g filter="url(#filter0_bdiiiii_405_254)">
<path fill-rule="evenodd" clip-rule="evenodd" d="M185.71 0.405626C187.41 -1.21746 189.993 0.995722 188.665 2.93601L129.23 89.7052C128.293 91.0706 129.364 92.9125 131.008 92.7681L165.947 89.7C167.687 89.5472 168.736 91.5885 167.604 92.923L107.64 163.615C106.508 164.95 107.557 166.99 109.297 166.838L146.919 163.534C148.76 163.373 149.774 165.629 148.436 166.907L3.30853 305.514C1.60909 307.138 -0.975006 304.924 0.354028 302.984L60.5708 215.073C61.5061 213.708 60.4362 211.865 58.7918 212.01L23.1053 215.144C21.3716 215.296 20.3208 213.268 21.4408 211.931L79.6406 142.448C80.7606 141.111 79.7098 139.081 77.9761 139.234L42.0993 142.385C40.2593 142.546 39.2453 140.29 40.5834 139.013L185.71 0.405626Z" fill="black"/>
</g>
<g style="mix-blend-mode:overlay">
<rect x="-6" y="-7" width="205.297" height="317.354" fill="white"/>
</g>
</g>
<defs>
<filter id="filter0_bdiiiii_405_254" x="-84.6221" y="-84.7664" width="358.263" height="475.453" filterUnits="userSpaceOnUse" color-interpolation-filters="sRGB">
<feFlood flood-opacity="0" result="BackgroundImageFix"/>
<feGaussianBlur in="BackgroundImageFix" stdDeviation="42.3047"/>
<feComposite in2="SourceAlpha" operator="in" result="effect1_backgroundBlur_405_254"/>
<feColorMatrix in="SourceAlpha" type="matrix" values="0 0 0 0 0 0 0 0 0 0 0 0 0 0 0 0 0 0 127 0" result="hardAlpha"/>
<feOffset dy="8.46094"/>
<feGaussianBlur stdDeviation="21.1523"/>
<feComposite in2="hardAlpha" operator="out"/>
<feColorMatrix type="matrix" values="0 0 0 0 0 0 0 0 0 0 0 0 0 0 0 0 0 0 0.2 0"/>
<feBlend mode="normal" in2="effect1_backgroundBlur_405_254" result="effect2_dropShadow_405_254"/>
<feBlend mode="normal" in="SourceGraphic" in2="effect2_dropShadow_405_254" result="shape"/>
<feColorMatrix in="SourceAlpha" type="matrix" values="0 0 0 0 0 0 0 0 0 0 0 0 0 0 0 0 0 0 127 0" result="hardAlpha"/>
<feOffset dy="8.46094"/>
<feGaussianBlur stdDeviation="12.6914"/>
<feComposite in2="hardAlpha" operator="arithmetic" k2="-1" k3="1"/>
<feColorMatrix type="matrix" values="0 0 0 0 1 0 0 0 0 1 0 0 0 0 1 0 0 0 0.4 0"/>
<feBlend mode="normal" in2="shape" result="effect3_innerShadow_405_254"/>
<feColorMatrix in="SourceAlpha" type="matrix" values="0 0 0 0 0 0 0 0 0 0 0 0 0 0 0 0 0 0 127 0" result="hardAlpha"/>
<feOffset dy="-84.6094"/>
<feGaussianBlur stdDeviation="42.3047"/>
<feComposite in2="hardAlpha" operator="arithmetic" k2="-1" k3="1"/>
<feColorMatrix type="matrix" values="0 0 0 0 0 0 0 0 0 0 0 0 0 0 0 0 0 0 0.2 0"/>
<feBlend mode="normal" in2="effect3_innerShadow_405_254" result="effect4_innerShadow_405_254"/>
<feColorMatrix in="SourceAlpha" type="matrix" values="0 0 0 0 0 0 0 0 0 0 0 0 0 0 0 0 0 0 127 0" result="hardAlpha"/>
<feOffset dy="-8.46094"/>
<feGaussianBlur stdDeviation="4.23047"/>
<feComposite in2="hardAlpha" operator="arithmetic" k2="-1" k3="1"/>
<feColorMatrix type="matrix" values="0 0 0 0 1 0 0 0 0 1 0 0 0 0 1 0 0 0 0.25 0"/>
<feBlend mode="normal" in2="effect4_innerShadow_405_254" result="effect5_innerShadow_405_254"/>
<feColorMatrix in="SourceAlpha" type="matrix" values="0 0 0 0 0 0 0 0 0 0 0 0 0 0 0 0 0 0 127 0" result="hardAlpha"/>
<feOffset dy="42.3047"/>
<feGaussianBlur stdDeviation="42.3047"/>
<feComposite in2="hardAlpha" operator="arithmetic" k2="-1" k3="1"/>
<feColorMatrix type="matrix" values="0 0 0 0 1 0 0 0 0 1 0 0 0 0 1 0 0 0 0.25 0"/>
<feBlend mode="normal" in2="effect5_innerShadow_405_254" result="effect6_innerShadow_405_254"/>
<feColorMatrix in="SourceAlpha" type="matrix" values="0 0 0 0 0 0 0 0 0 0 0 0 0 0 0 0 0 0 127 0" result="hardAlpha"/>
<feOffset dy="2.11523"/>
<feGaussianBlur stdDeviation="2.11523"/>
<feComposite in2="hardAlpha" operator="arithmetic" k2="-1" k3="1"/>
<feColorMatrix type="matrix" values="0 0 0 0 1 0 0 0 0 1 0 0 0 0 1 0 0 0 0.8 0"/>
<feBlend mode="normal" in2="effect6_innerShadow_405_254" result="effect7_innerShadow_405_254"/>
</filter>
</defs>
</svg>
